<?xml version="1.0" encoding="UTF-8" standalone="no"?>
<svg
   id="svg"
   version="1.1"
   width="400"
   height="400"
   viewBox="0, 0, 400,400"
   sodipodi:docname="image2vector.svg"
   inkscape:version="1.1.2 (0a00cf5339, 2022-02-04)"
   xmlns:inkscape="http://www.inkscape.org/namespaces/inkscape"
   xmlns:sodipodi="http://sodipodi.sourceforge.net/DTD/sodipodi-0.dtd"
   xmlns="http://www.w3.org/2000/svg"
   xmlns:svg="http://www.w3.org/2000/svg">
  <defs
     id="defs99" />
  <sodipodi:namedview
     id="namedview97"
     pagecolor="#ffffff"
     bordercolor="#666666"
     borderopacity="1.0"
     inkscape:pageshadow="2"
     inkscape:pageopacity="0.0"
     inkscape:pagecheckerboard="0"
     showgrid="false"
     inkscape:zoom="1.16"
     inkscape:cx="199.56897"
     inkscape:cy="198.7069"
     inkscape:window-width="1366"
     inkscape:window-height="679"
     inkscape:window-x="0"
     inkscape:window-y="22"
     inkscape:window-maximized="1"
     inkscape:current-layer="svg" />
  <g
     id="svgg">
    <path
       id="path0"
       d="M175.600 58.000 C 175.600 58.262,167.867 58.400,153.200 58.400 C 138.533 58.400,130.800 58.538,130.800 58.800 C 130.800 59.059,125.867 59.200,116.800 59.200 C 109.100 59.200,102.800 59.353,102.800 59.541 C 102.800 59.728,95.645 60.012,86.900 60.171 C 77.820 60.336,70.943 60.619,70.867 60.830 C 70.793 61.034,68.138 61.200,64.967 61.200 C 61.389 61.200,59.200 61.352,59.200 61.600 C 59.200 61.837,57.733 62.000,55.600 62.000 C 53.467 62.000,52.000 62.163,52.000 62.400 C 52.000 62.622,50.933 62.800,49.600 62.800 C 48.267 62.800,47.200 62.978,47.200 63.200 C 47.200 63.420,46.480 63.600,45.600 63.600 C 44.720 63.600,44.000 63.780,44.000 64.000 C 44.000 64.220,43.370 64.400,42.600 64.400 C 41.830 64.400,41.200 64.580,41.200 64.800 C 41.200 65.020,40.660 65.200,40.000 65.200 C 39.340 65.200,38.800 65.380,38.800 65.600 C 38.800 65.820,38.440 66.000,38.000 66.000 C 37.560 66.000,37.200 66.180,37.200 66.400 C 37.200 66.620,36.840 66.800,36.400 66.800 C 35.960 66.800,35.600 66.980,35.600 67.200 C 35.600 67.420,35.240 67.600,34.800 67.600 C 34.360 67.600,34.000 67.780,34.000 68.000 C 34.000 68.220,33.640 68.400,33.200 68.400 C 32.760 68.400,32.400 68.580,32.400 68.800 C 32.400 69.020,32.040 69.200,31.600 69.200 C 31.160 69.200,30.800 69.380,30.800 69.600 C 30.800 69.820,30.480 70.000,30.088 70.000 C 29.697 70.000,29.117 70.360,28.800 70.800 C 28.483 71.240,28.033 71.600,27.800 71.600 C 27.567 71.600,27.117 71.960,26.800 72.400 C 26.483 72.840,25.989 73.200,25.703 73.200 C 25.417 73.200,24.205 74.145,23.010 75.300 C 21.816 76.455,20.118 78.030,19.238 78.800 C 18.357 79.570,17.629 80.439,17.618 80.731 C 17.608 81.024,16.880 81.954,16.000 82.800 C 15.120 83.646,14.400 84.621,14.400 84.969 C 14.400 85.316,14.220 85.600,14.000 85.600 C 13.780 85.600,13.600 85.960,13.600 86.400 C 13.600 86.840,13.420 87.200,13.200 87.200 C 12.980 87.200,12.800 87.560,12.800 88.000 C 12.800 88.440,12.620 88.800,12.400 88.800 C 12.180 88.800,12.000 89.160,12.000 89.600 C 12.000 90.040,11.820 90.400,11.600 90.400 C 11.380 90.400,11.200 90.760,11.200 91.200 C 11.200 91.640,11.031 92.000,10.825 92.000 C 10.618 92.000,10.328 92.810,10.179 93.800 C 10.031 94.790,9.750 95.600,9.555 95.600 C 9.360 95.600,9.200 95.960,9.200 96.400 C 9.200 96.840,9.020 97.200,8.800 97.200 C 8.580 97.200,8.400 97.920,8.400 98.800 C 8.400 99.680,8.220 100.400,8.000 100.400 C 7.780 100.400,7.600 100.940,7.600 101.600 C 7.600 102.260,7.420 102.800,7.200 102.800 C 6.980 102.800,6.800 103.340,6.800 104.000 C 6.800 104.660,6.620 105.200,6.400 105.200 C 6.180 105.200,6.000 105.920,6.000 106.800 C 6.000 107.680,5.820 108.400,5.600 108.400 C 5.380 108.400,5.200 109.030,5.200 109.800 C 5.200 110.570,5.020 111.200,4.800 111.200 C 4.580 111.200,4.400 112.100,4.400 113.200 C 4.400 114.300,4.220 115.200,4.000 115.200 C 3.778 115.200,3.600 116.267,3.600 117.600 C 3.600 118.933,3.422 120.000,3.200 120.000 C 2.961 120.000,2.800 121.533,2.800 123.800 C 2.800 126.067,2.639 127.600,2.400 127.600 C 2.158 127.600,2.000 129.333,2.000 132.000 C 2.000 134.667,1.842 136.400,1.600 136.400 C 1.355 136.400,1.200 138.322,1.200 141.367 C 1.200 144.984,1.064 146.379,0.700 146.500 C 0.303 146.632,0.200 157.689,0.200 200.000 C 0.200 242.311,0.303 253.368,0.700 253.500 C 1.064 253.621,1.200 255.016,1.200 258.633 C 1.200 261.678,1.355 263.600,1.600 263.600 C 1.840 263.600,2.000 265.200,2.000 267.600 C 2.000 270.000,2.160 271.600,2.400 271.600 C 2.641 271.600,2.800 273.267,2.800 275.800 C 2.800 278.333,2.959 280.000,3.200 280.000 C 3.422 280.000,3.600 281.067,3.600 282.400 C 3.600 283.733,3.778 284.800,4.000 284.800 C 4.220 284.800,4.400 285.520,4.400 286.400 C 4.400 287.280,4.580 288.000,4.800 288.000 C 5.020 288.000,5.200 288.810,5.200 289.800 C 5.200 290.790,5.380 291.600,5.600 291.600 C 5.820 291.600,6.000 292.320,6.000 293.200 C 6.000 294.080,6.180 294.800,6.400 294.800 C 6.620 294.800,6.800 295.340,6.800 296.000 C 6.800 296.660,6.980 297.200,7.200 297.200 C 7.420 297.200,7.600 297.740,7.600 298.400 C 7.600 299.060,7.780 299.600,8.000 299.600 C 8.220 299.600,8.400 300.140,8.400 300.800 C 8.400 301.460,8.580 302.000,8.800 302.000 C 9.020 302.000,9.200 302.540,9.200 303.200 C 9.200 303.860,9.360 304.400,9.555 304.400 C 9.751 304.400,10.032 305.075,10.180 305.900 C 10.505 307.706,11.281 309.600,11.698 309.600 C 11.864 309.600,12.000 309.960,12.000 310.400 C 12.000 310.840,12.180 311.200,12.400 311.200 C 12.620 311.200,12.800 311.560,12.800 312.000 C 12.800 312.440,12.980 312.800,13.200 312.800 C 13.420 312.800,13.600 313.120,13.600 313.512 C 13.600 313.903,13.960 314.483,14.400 314.800 C 14.840 315.117,15.200 315.625,15.200 315.928 C 15.200 316.231,15.740 316.983,16.400 317.600 C 17.060 318.217,17.600 318.923,17.600 319.169 C 17.600 319.740,21.840 324.000,22.408 324.000 C 22.853 324.000,23.391 324.395,25.001 325.900 C 25.530 326.395,26.230 326.800,26.555 326.800 C 26.880 326.800,27.260 327.160,27.400 327.600 C 27.540 328.040,27.962 328.400,28.339 328.400 C 28.715 328.400,29.283 328.760,29.600 329.200 C 29.917 329.640,30.497 330.000,30.888 330.000 C 31.280 330.000,31.600 330.180,31.600 330.400 C 31.600 330.620,31.960 330.800,32.400 330.800 C 32.840 330.800,33.200 330.980,33.200 331.200 C 33.200 331.420,33.560 331.600,34.000 331.600 C 34.440 331.600,34.800 331.780,34.800 332.000 C 34.800 332.220,35.160 332.400,35.600 332.400 C 36.040 332.400,36.400 332.580,36.400 332.800 C 36.400 333.020,36.940 333.200,37.600 333.200 C 38.260 333.200,38.800 333.380,38.800 333.600 C 38.800 333.820,39.340 334.000,40.000 334.000 C 40.660 334.000,41.200 334.180,41.200 334.400 C 41.200 334.620,41.740 334.800,42.400 334.800 C 43.060 334.800,43.600 334.980,43.600 335.200 C 43.600 335.420,44.410 335.600,45.400 335.600 C 46.390 335.600,47.200 335.780,47.200 336.000 C 47.200 336.220,48.100 336.400,49.200 336.400 C 50.300 336.400,51.200 336.580,51.200 336.800 C 51.200 337.029,52.400 337.200,54.000 337.200 C 55.600 337.200,56.800 337.371,56.800 337.600 C 56.800 337.831,58.067 338.000,59.800 338.000 C 61.533 338.000,62.800 338.169,62.800 338.400 C 62.800 338.646,64.800 338.800,68.000 338.800 C 71.200 338.800,73.200 338.954,73.200 339.200 C 73.200 339.452,75.933 339.600,80.600 339.600 C 85.267 339.600,88.000 339.748,88.000 340.000 C 88.000 340.257,91.922 340.400,98.967 340.400 C 105.621 340.400,109.986 340.551,110.067 340.784 C 110.150 341.024,123.979 341.275,146.700 341.449 C 166.775 341.603,183.200 341.880,183.200 342.065 C 183.200 342.249,191.840 342.400,202.400 342.400 C 212.960 342.400,221.600 342.249,221.600 342.064 C 221.600 341.880,237.845 341.602,257.700 341.447 C 280.077 341.273,293.851 341.021,293.933 340.783 C 294.013 340.554,297.679 340.400,303.033 340.400 C 308.744 340.400,312.000 340.255,312.000 340.000 C 312.000 339.748,314.733 339.600,319.400 339.600 C 324.067 339.600,326.800 339.452,326.800 339.200 C 326.800 338.950,329.200 338.800,333.200 338.800 C 337.200 338.800,339.600 338.650,339.600 338.400 C 339.600 338.161,341.133 338.000,343.400 338.000 C 345.667 338.000,347.200 337.839,347.200 337.600 C 347.200 337.378,348.267 337.200,349.600 337.200 C 350.933 337.200,352.000 337.022,352.000 336.800 C 352.000 336.580,352.900 336.400,354.000 336.400 C 355.100 336.400,356.000 336.220,356.000 336.000 C 356.000 335.780,356.540 335.600,357.200 335.600 C 357.860 335.600,358.400 335.420,358.400 335.200 C 358.400 334.980,358.850 334.800,359.400 334.800 C 359.950 334.800,360.400 334.620,360.400 334.400 C 360.400 334.180,360.940 334.000,361.600 334.000 C 362.260 334.000,362.800 333.820,362.800 333.600 C 362.800 333.380,363.160 333.200,363.600 333.200 C 364.040 333.200,364.400 333.020,364.400 332.800 C 364.400 332.580,364.760 332.400,365.200 332.400 C 365.640 332.400,366.000 332.220,366.000 332.000 C 366.000 331.780,366.360 331.600,366.800 331.600 C 367.240 331.600,367.600 331.420,367.600 331.200 C 367.600 330.980,367.920 330.800,368.312 330.800 C 368.703 330.800,369.283 330.440,369.600 330.000 C 369.917 329.560,370.457 329.200,370.800 329.200 C 371.143 329.200,371.683 328.840,372.000 328.400 C 372.317 327.960,372.831 327.600,373.141 327.600 C 373.730 327.600,375.200 326.128,375.200 325.539 C 375.200 325.352,375.551 325.200,375.980 325.200 C 376.809 325.200,382.400 319.957,382.400 319.180 C 382.400 318.927,382.940 318.217,383.600 317.600 C 384.260 316.983,384.800 316.231,384.800 315.928 C 384.800 315.625,385.160 315.117,385.600 314.800 C 386.040 314.483,386.400 313.903,386.400 313.512 C 386.400 313.120,386.580 312.800,386.800 312.800 C 387.020 312.800,387.200 312.440,387.200 312.000 C 387.200 311.560,387.380 311.200,387.600 311.200 C 387.820 311.200,388.000 310.840,388.000 310.400 C 388.000 309.960,388.180 309.600,388.400 309.600 C 388.620 309.600,388.800 309.330,388.800 309.000 C 388.800 308.670,388.980 308.400,389.200 308.400 C 389.420 308.400,389.600 307.860,389.600 307.200 C 389.600 306.540,389.780 306.000,390.000 306.000 C 390.220 306.000,390.400 305.640,390.400 305.200 C 390.400 304.760,390.562 304.400,390.761 304.400 C 390.959 304.400,391.247 303.320,391.400 302.000 C 391.553 300.680,391.841 299.600,392.039 299.600 C 392.238 299.600,392.400 299.060,392.400 298.400 C 392.400 297.740,392.580 297.200,392.800 297.200 C 393.020 297.200,393.200 296.660,393.200 296.000 C 393.200 295.340,393.380 294.800,393.600 294.800 C 393.820 294.800,394.000 293.990,394.000 293.000 C 394.000 292.010,394.180 291.200,394.400 291.200 C 394.620 291.200,394.800 290.480,394.800 289.600 C 394.800 288.720,394.980 288.000,395.200 288.000 C 395.420 288.000,395.600 287.280,395.600 286.400 C 395.600 285.520,395.780 284.800,396.000 284.800 C 396.222 284.800,396.400 283.733,396.400 282.400 C 396.400 281.067,396.578 280.000,396.800 280.000 C 397.041 280.000,397.200 278.333,397.200 275.800 C 397.200 273.267,397.359 271.600,397.600 271.600 C 397.840 271.600,398.000 270.000,398.000 267.600 C 398.000 265.200,398.160 263.600,398.400 263.600 C 398.645 263.600,398.800 261.678,398.800 258.633 C 398.800 255.016,398.936 253.621,399.300 253.500 C 399.697 253.368,399.800 242.311,399.800 200.000 C 399.800 157.689,399.697 146.632,399.300 146.500 C 398.936 146.379,398.800 144.984,398.800 141.367 C 398.800 138.322,398.645 136.400,398.400 136.400 C 398.158 136.400,398.000 134.667,398.000 132.000 C 398.000 129.333,397.842 127.600,397.600 127.600 C 397.361 127.600,397.200 126.067,397.200 123.800 C 397.200 121.533,397.039 120.000,396.800 120.000 C 396.578 120.000,396.400 118.933,396.400 117.600 C 396.400 116.267,396.222 115.200,396.000 115.200 C 395.780 115.200,395.600 114.300,395.600 113.200 C 395.600 112.100,395.420 111.200,395.200 111.200 C 394.980 111.200,394.800 110.570,394.800 109.800 C 394.800 109.030,394.620 108.400,394.400 108.400 C 394.180 108.400,394.000 107.680,394.000 106.800 C 394.000 105.920,393.820 105.200,393.600 105.200 C 393.380 105.200,393.200 104.660,393.200 104.000 C 393.200 103.340,393.020 102.800,392.800 102.800 C 392.580 102.800,392.400 102.260,392.400 101.600 C 392.400 100.940,392.220 100.400,392.000 100.400 C 391.780 100.400,391.599 99.725,391.598 98.900 C 391.596 98.075,391.326 96.884,390.998 96.254 C 390.669 95.624,390.400 94.769,390.400 94.354 C 390.400 93.939,390.220 93.600,390.000 93.600 C 389.780 93.600,389.600 93.240,389.600 92.800 C 389.600 92.360,389.420 92.000,389.200 92.000 C 388.980 92.000,388.800 91.640,388.800 91.200 C 388.800 90.760,388.620 90.400,388.400 90.400 C 388.180 90.400,388.000 90.040,388.000 89.600 C 388.000 89.160,387.820 88.800,387.600 88.800 C 387.380 88.800,387.200 88.440,387.200 88.000 C 387.200 87.560,387.020 87.200,386.800 87.200 C 386.580 87.200,386.400 86.840,386.400 86.400 C 386.400 85.960,386.220 85.600,386.000 85.600 C 385.780 85.600,385.600 85.316,385.600 84.969 C 385.600 84.621,384.880 83.646,384.000 82.800 C 383.120 81.954,382.392 81.024,382.382 80.731 C 382.371 80.439,381.643 79.570,380.762 78.800 C 379.882 78.030,378.184 76.455,376.990 75.300 C 375.795 74.145,374.673 73.200,374.497 73.200 C 374.321 73.200,373.917 72.840,373.600 72.400 C 373.283 71.960,372.743 71.600,372.400 71.600 C 372.057 71.600,371.517 71.240,371.200 70.800 C 370.883 70.360,370.303 70.000,369.912 70.000 C 369.520 70.000,369.200 69.820,369.200 69.600 C 369.200 69.380,368.840 69.200,368.400 69.200 C 367.960 69.200,367.600 69.020,367.600 68.800 C 367.600 68.580,367.240 68.400,366.800 68.400 C 366.360 68.400,366.000 68.220,366.000 68.000 C 366.000 67.780,365.640 67.600,365.200 67.600 C 364.760 67.600,364.400 67.420,364.400 67.200 C 364.400 66.980,364.040 66.800,363.600 66.800 C 363.160 66.800,362.800 66.620,362.800 66.400 C 362.800 66.180,362.440 66.000,362.000 66.000 C 361.560 66.000,361.200 65.820,361.200 65.600 C 361.200 65.380,360.660 65.200,360.000 65.200 C 359.340 65.200,358.800 65.020,358.800 64.800 C 358.800 64.580,358.170 64.400,357.400 64.400 C 356.630 64.400,356.000 64.220,356.000 64.000 C 356.000 63.780,355.280 63.600,354.400 63.600 C 353.520 63.600,352.800 63.420,352.800 63.200 C 352.800 62.978,351.733 62.800,350.400 62.800 C 349.067 62.800,348.000 62.622,348.000 62.400 C 348.000 62.165,346.608 62.000,344.624 62.000 C 342.767 62.000,341.136 61.820,341.000 61.600 C 340.854 61.363,338.407 61.200,335.010 61.200 C 331.851 61.200,329.207 61.034,329.133 60.830 C 329.057 60.619,322.180 60.336,313.100 60.171 C 304.355 60.012,297.200 59.728,297.200 59.541 C 297.200 59.353,290.900 59.200,283.200 59.200 C 274.133 59.200,269.200 59.059,269.200 58.800 C 269.200 58.538,261.533 58.400,247.000 58.400 C 232.467 58.400,224.800 58.262,224.800 58.000 C 224.800 57.738,216.333 57.600,200.200 57.600 C 184.067 57.600,175.600 57.738,175.600 58.000 M71.800 85.200 C 71.936 85.420,72.656 85.600,73.400 85.600 C 74.144 85.600,74.864 85.780,75.000 86.000 C 75.136 86.220,76.118 86.400,77.183 86.400 C 78.560 86.400,79.777 86.746,81.400 87.600 C 82.655 88.260,84.023 88.800,84.441 88.800 C 84.858 88.800,85.200 88.980,85.200 89.200 C 85.200 89.420,85.520 89.600,85.912 89.600 C 86.303 89.600,86.883 89.960,87.200 90.400 C 87.517 90.840,88.097 91.200,88.488 91.200 C 88.880 91.200,89.200 91.380,89.200 91.600 C 89.200 91.820,89.520 92.000,89.912 92.000 C 90.303 92.000,90.883 92.360,91.200 92.800 C 91.517 93.240,92.021 93.600,92.320 93.600 C 92.618 93.600,93.554 94.320,94.400 95.200 C 95.246 96.080,96.092 96.800,96.281 96.800 C 96.788 96.800,101.200 101.348,101.200 101.870 C 101.200 102.116,101.830 102.870,102.600 103.546 C 103.370 104.222,104.000 105.050,104.000 105.384 C 104.000 105.719,104.360 106.218,104.800 106.493 C 105.240 106.768,105.600 107.309,105.600 107.696 C 105.600 108.083,105.780 108.400,106.000 108.400 C 106.220 108.400,106.400 108.720,106.400 109.112 C 106.400 109.503,106.760 110.083,107.200 110.400 C 107.640 110.717,108.000 111.297,108.000 111.688 C 108.000 112.080,108.180 112.400,108.400 112.400 C 108.620 112.400,108.800 112.940,108.800 113.600 C 108.800 114.260,108.980 114.800,109.200 114.800 C 109.420 114.800,109.600 115.160,109.600 115.600 C 109.600 116.040,109.780 116.400,110.000 116.400 C 110.220 116.400,110.400 116.940,110.400 117.600 C 110.400 118.260,110.580 118.800,110.800 118.800 C 111.020 118.800,111.200 119.599,111.200 120.576 C 111.200 121.553,111.380 122.464,111.600 122.600 C 111.820 122.736,112.000 123.456,112.000 124.200 C 112.000 124.944,112.180 125.664,112.400 125.800 C 112.643 125.950,112.800 128.863,112.800 133.200 C 112.800 137.537,112.643 140.450,112.400 140.600 C 112.180 140.736,112.000 141.456,112.000 142.200 C 112.000 142.944,111.820 143.664,111.600 143.800 C 111.380 143.936,111.200 144.918,111.200 145.983 C 111.200 147.360,110.854 148.577,110.000 150.200 C 109.340 151.455,108.800 152.823,108.800 153.241 C 108.800 153.658,108.620 154.000,108.400 154.000 C 108.180 154.000,108.000 154.320,108.000 154.712 C 108.000 155.103,107.640 155.683,107.200 156.000 C 106.760 156.317,106.400 156.897,106.400 157.288 C 106.400 157.680,106.220 158.000,106.000 158.000 C 105.780 158.000,105.600 158.320,105.600 158.712 C 105.600 159.103,105.240 159.683,104.800 160.000 C 104.360 160.317,104.000 160.815,104.000 161.106 C 104.000 161.398,103.550 162.086,103.000 162.636 C 102.450 163.186,101.999 163.763,101.998 163.918 C 101.993 164.456,95.246 171.200,94.713 171.200 C 94.418 171.200,93.917 171.560,93.600 172.000 C 93.283 172.440,92.775 172.800,92.472 172.800 C 92.169 172.800,91.417 173.340,90.800 174.000 C 90.183 174.660,89.391 175.200,89.040 175.200 C 88.688 175.200,88.400 175.380,88.400 175.600 C 88.400 175.820,88.040 176.000,87.600 176.000 C 87.160 176.000,86.799 176.135,86.797 176.300 C 86.793 176.659,84.856 177.600,84.120 177.600 C 83.834 177.600,83.600 177.780,83.600 178.000 C 83.600 178.220,83.161 178.400,82.624 178.400 C 82.087 178.400,81.536 178.580,81.400 178.800 C 81.264 179.020,80.713 179.200,80.176 179.200 L 79.200 179.200 79.200 197.400 C 79.200 209.267,79.339 215.600,79.600 215.600 C 79.825 215.600,80.000 216.725,80.000 218.176 C 80.000 219.593,80.180 220.864,80.400 221.000 C 80.620 221.136,80.800 222.036,80.800 223.000 C 80.800 223.964,80.980 224.864,81.200 225.000 C 81.420 225.136,81.600 225.758,81.600 226.383 C 81.600 227.008,82.140 228.545,82.800 229.800 C 83.460 231.055,84.013 232.378,84.029 232.741 C 84.045 233.103,84.403 233.940,84.823 234.600 C 85.244 235.260,85.768 236.210,85.988 236.710 C 86.208 237.211,86.661 237.725,86.994 237.853 C 87.327 237.981,87.600 238.350,87.600 238.674 C 87.600 238.998,88.320 239.954,89.200 240.800 C 90.080 241.646,90.800 242.544,90.800 242.797 C 90.800 243.461,91.838 244.400,92.571 244.400 C 92.917 244.400,93.200 244.683,93.200 245.029 C 93.200 245.837,94.163 246.800,94.971 246.800 C 95.317 246.800,95.600 247.083,95.600 247.429 C 95.600 248.237,96.563 249.200,97.371 249.200 C 97.736 249.200,98.000 249.540,98.000 250.010 C 98.000 250.481,98.376 250.964,98.900 251.164 C 99.906 251.549,100.951 252.641,101.327 253.700 C 101.463 254.085,101.941 254.400,102.387 254.400 C 102.859 254.400,103.200 254.663,103.200 255.029 C 103.200 255.837,104.163 256.800,104.971 256.800 C 105.317 256.800,105.600 257.083,105.600 257.429 C 105.600 258.237,106.563 259.200,107.371 259.200 C 107.717 259.200,108.000 259.483,108.000 259.829 C 108.000 260.637,108.963 261.600,109.771 261.600 C 110.117 261.600,110.400 261.883,110.400 262.229 C 110.400 262.574,110.670 263.127,111.000 263.457 C 111.533 263.990,111.600 263.143,111.600 255.829 C 111.600 250.610,111.746 247.600,112.000 247.600 C 112.220 247.600,112.400 247.100,112.400 246.488 C 112.400 245.835,112.730 245.139,113.200 244.800 C 113.640 244.483,114.000 243.989,114.000 243.703 C 114.000 242.982,118.247 238.800,118.979 238.800 C 119.307 238.800,120.217 238.440,121.000 238.000 C 122.145 237.357,123.166 237.200,126.200 237.200 C 129.234 237.200,130.255 237.357,131.400 238.000 C 132.183 238.440,133.103 238.800,133.444 238.800 C 133.784 238.800,134.754 239.520,135.600 240.400 C 136.446 241.280,137.421 242.000,137.769 242.000 C 138.133 242.000,138.400 242.338,138.400 242.800 C 138.400 243.240,138.580 243.600,138.800 243.600 C 139.020 243.600,139.200 243.920,139.200 244.312 C 139.200 244.703,139.560 245.283,140.000 245.600 C 140.788 246.168,140.800 246.635,140.800 276.128 L 140.800 306.079 139.600 307.200 C 138.940 307.817,138.400 308.523,138.400 308.771 C 138.400 309.428,134.922 312.800,134.244 312.800 C 133.926 312.800,133.607 312.935,133.533 313.100 C 133.460 313.265,132.618 313.805,131.662 314.300 L 129.924 315.200 102.439 315.200 L 74.954 315.200 72.324 313.877 C 69.803 312.608,66.400 309.764,66.400 308.924 C 66.400 308.704,66.040 308.198,65.600 307.800 C 65.109 307.356,64.800 306.568,64.800 305.762 C 64.800 305.039,64.620 304.336,64.400 304.200 C 64.173 304.060,64.000 302.070,64.000 299.600 C 64.000 297.130,64.173 295.140,64.400 295.000 C 64.620 294.864,64.800 294.353,64.800 293.865 C 64.800 293.376,65.160 292.717,65.600 292.400 C 66.040 292.083,66.400 291.602,66.400 291.330 C 66.400 290.584,70.485 286.400,71.213 286.400 C 71.563 286.400,72.595 286.040,73.506 285.600 C 74.973 284.891,75.980 284.800,82.356 284.800 L 89.550 284.800 78.175 273.420 C 71.919 267.161,66.800 261.855,66.800 261.629 C 66.800 261.403,65.810 260.227,64.600 259.017 C 63.217 257.635,62.400 256.478,62.400 255.904 C 62.400 255.393,61.954 254.655,61.388 254.230 C 60.831 253.812,60.081 252.824,59.721 252.035 C 59.361 251.246,58.808 250.296,58.493 249.924 C 57.493 248.745,54.400 242.272,54.400 241.358 C 54.400 240.876,53.860 239.455,53.200 238.200 C 52.489 236.848,52.000 235.311,52.000 234.426 C 52.000 233.605,51.877 232.810,51.726 232.659 C 50.329 231.262,50.241 229.758,50.102 204.854 C 49.958 179.036,49.970 179.200,48.229 179.200 C 47.883 179.200,47.600 179.020,47.600 178.800 C 47.600 178.580,47.060 178.400,46.400 178.400 C 45.740 178.400,45.200 178.220,45.200 178.000 C 45.200 177.780,44.784 177.600,44.275 177.600 C 43.767 177.600,43.002 177.279,42.575 176.887 C 42.149 176.495,41.167 175.876,40.394 175.513 C 39.621 175.149,38.554 174.390,38.024 173.826 C 37.494 173.262,36.625 172.800,36.093 172.800 C 35.462 172.800,35.052 172.522,34.916 172.000 C 34.801 171.560,34.506 171.200,34.261 171.200 C 33.668 171.200,26.400 163.946,26.400 163.355 C 26.400 163.101,26.040 162.799,25.600 162.684 C 25.078 162.548,24.800 162.138,24.800 161.507 C 24.800 160.975,24.335 160.103,23.766 159.570 C 23.197 159.036,22.396 157.864,21.985 156.965 C 21.575 156.066,20.961 155.099,20.620 154.816 C 20.279 154.534,20.000 153.885,20.000 153.375 C 20.000 152.865,19.820 152.336,19.600 152.200 C 19.380 152.064,19.200 151.609,19.200 151.189 C 19.200 150.768,18.877 149.834,18.481 149.112 C 16.743 145.938,16.600 144.690,16.600 132.720 C 16.600 124.069,16.723 121.117,17.100 120.740 C 17.375 120.465,17.600 119.921,17.600 119.532 C 17.600 119.143,17.960 118.183,18.400 117.400 C 18.840 116.617,19.200 115.758,19.200 115.491 C 19.200 114.557,22.822 107.719,23.806 106.794 C 24.353 106.281,24.800 105.650,24.800 105.392 C 24.800 105.135,25.160 104.598,25.600 104.200 C 26.040 103.802,26.400 103.276,26.400 103.031 C 26.400 102.271,34.519 94.557,36.045 93.868 C 36.840 93.509,37.717 92.941,37.994 92.607 C 38.271 92.273,38.724 92.000,39.000 92.000 C 39.276 92.000,39.719 91.739,39.984 91.419 C 40.533 90.758,44.311 88.800,45.038 88.800 C 45.302 88.800,46.545 88.260,47.800 87.600 C 49.318 86.801,50.662 86.400,51.817 86.400 C 52.772 86.400,53.664 86.220,53.800 86.000 C 53.936 85.780,54.622 85.597,55.324 85.594 C 56.026 85.591,56.870 85.413,57.200 85.200 C 58.007 84.678,71.478 84.678,71.800 85.200 M317.200 88.400 C 317.200 88.620,317.560 88.800,318.000 88.800 C 318.440 88.800,318.800 88.980,318.800 89.200 C 318.800 89.420,319.160 89.600,319.600 89.600 C 320.040 89.600,320.400 89.780,320.400 90.000 C 320.400 90.220,320.675 90.400,321.011 90.400 C 321.755 90.400,325.200 93.773,325.200 94.501 C 325.200 94.788,325.560 95.283,326.000 95.600 C 326.557 96.002,326.800 96.635,326.800 97.688 C 326.800 98.520,326.980 99.200,327.200 99.200 C 327.441 99.200,327.600 100.859,327.600 103.376 C 327.600 105.729,327.425 107.661,327.200 107.800 C 326.980 107.936,326.800 108.577,326.800 109.224 C 326.800 109.871,326.620 110.400,326.400 110.400 C 326.180 110.400,326.000 110.620,326.000 110.890 C 326.000 111.652,320.707 116.800,319.923 116.800 C 319.539 116.800,318.583 117.160,317.800 117.600 C 316.521 118.318,315.634 118.400,309.112 118.400 L 301.848 118.400 313.024 129.602 C 319.171 135.763,324.272 141.018,324.359 141.279 C 324.446 141.540,325.571 142.820,326.859 144.124 C 328.147 145.428,329.200 146.835,329.200 147.251 C 329.200 147.667,329.740 148.572,330.400 149.263 C 331.060 149.954,331.600 150.685,331.600 150.887 C 331.600 151.090,332.116 152.008,332.746 152.928 C 334.233 155.097,336.000 158.604,336.000 159.387 C 336.000 159.724,336.180 160.000,336.400 160.000 C 336.620 160.000,336.800 160.596,336.800 161.325 C 336.800 162.096,337.134 163.008,337.600 163.508 C 338.040 163.980,338.400 164.723,338.400 165.160 C 338.400 165.596,338.580 166.064,338.800 166.200 C 339.020 166.336,339.200 167.236,339.200 168.200 C 339.200 169.164,339.380 170.064,339.600 170.200 C 339.820 170.336,340.000 170.876,340.000 171.400 C 340.000 171.924,340.180 172.464,340.400 172.600 C 340.620 172.736,340.800 173.467,340.800 174.224 C 340.800 174.981,340.980 175.600,341.200 175.600 C 341.462 175.600,341.600 183.933,341.600 199.800 L 341.600 224.000 342.576 224.000 C 343.113 224.000,343.664 224.180,343.800 224.400 C 343.936 224.620,344.476 224.800,345.000 224.800 C 345.524 224.800,346.064 224.980,346.200 225.200 C 346.336 225.420,346.865 225.600,347.375 225.600 C 347.885 225.600,348.529 225.873,348.806 226.207 C 349.083 226.541,349.960 227.115,350.755 227.483 C 351.550 227.850,352.697 228.657,353.303 229.275 C 353.928 229.912,354.839 230.400,355.403 230.400 C 356.133 230.400,356.400 230.614,356.400 231.200 C 356.400 231.667,356.667 232.000,357.041 232.000 C 357.770 232.000,365.200 239.121,365.200 239.820 C 365.200 240.071,365.560 240.602,366.000 241.000 C 366.440 241.398,366.800 241.935,366.800 242.192 C 366.800 242.450,367.250 243.083,367.800 243.600 C 368.350 244.117,368.800 244.868,368.800 245.270 C 368.800 245.671,368.980 246.000,369.200 246.000 C 369.420 246.000,369.600 246.242,369.600 246.538 C 369.600 246.834,369.960 247.402,370.400 247.800 C 370.840 248.198,371.200 249.018,371.200 249.621 C 371.200 250.225,371.740 251.745,372.400 253.000 C 373.060 254.255,373.600 255.792,373.600 256.417 C 373.600 257.042,373.780 257.664,374.000 257.800 C 374.220 257.936,374.400 259.027,374.400 260.224 C 374.400 261.421,374.580 262.400,374.800 262.400 C 375.052 262.400,375.200 265.125,375.200 269.776 C 375.200 274.263,375.043 277.250,374.800 277.400 C 374.580 277.536,374.400 278.616,374.400 279.800 C 374.400 280.984,374.220 282.064,374.000 282.200 C 373.780 282.336,373.600 282.960,373.600 283.586 C 373.600 284.689,372.107 288.063,371.500 288.333 C 371.335 288.407,371.200 288.992,371.200 289.633 C 371.200 290.275,371.020 290.800,370.800 290.800 C 370.580 290.800,370.400 291.120,370.400 291.512 C 370.400 291.903,370.040 292.483,369.600 292.800 C 369.160 293.117,368.800 293.795,368.800 294.306 C 368.800 294.818,368.350 295.686,367.800 296.236 C 367.250 296.786,366.800 297.419,366.800 297.642 C 366.800 298.712,358.097 308.000,357.094 308.000 C 356.809 308.000,356.317 308.360,356.000 308.800 C 355.683 309.240,355.143 309.600,354.800 309.600 C 354.457 309.600,353.917 309.960,353.600 310.400 C 353.283 310.840,352.703 311.200,352.312 311.200 C 351.920 311.200,351.600 311.380,351.600 311.600 C 351.600 311.820,351.259 312.000,350.843 312.000 C 350.426 312.000,349.990 312.250,349.872 312.556 C 349.645 313.149,347.410 314.400,346.579 314.400 C 346.305 314.400,345.055 314.940,343.800 315.600 C 342.177 316.454,340.960 316.800,339.583 316.800 C 338.518 316.800,337.536 316.980,337.400 317.200 C 337.264 317.420,336.544 317.600,335.800 317.600 C 335.056 317.600,334.336 317.780,334.200 318.000 C 334.051 318.242,331.204 318.400,327.000 318.400 C 322.796 318.400,319.949 318.242,319.800 318.000 C 319.664 317.780,318.944 317.600,318.200 317.600 C 317.456 317.600,316.736 317.420,316.600 317.200 C 316.464 316.980,315.482 316.800,314.417 316.800 C 313.040 316.800,311.823 316.454,310.200 315.600 C 308.945 314.940,307.695 314.400,307.421 314.400 C 306.772 314.400,304.481 313.254,304.191 312.785 C 304.067 312.585,303.299 312.111,302.483 311.731 C 301.667 311.351,300.709 310.717,300.353 310.320 C 299.997 309.924,299.484 309.600,299.214 309.600 C 298.943 309.600,298.217 309.060,297.600 308.400 C 296.983 307.740,296.278 307.200,296.033 307.200 C 295.460 307.200,289.600 301.353,289.600 300.781 C 289.600 300.543,289.060 299.894,288.400 299.339 C 287.740 298.783,287.200 298.144,287.200 297.917 C 287.200 297.691,286.660 296.891,286.000 296.139 C 285.340 295.387,284.800 294.446,284.800 294.048 C 284.800 293.650,284.444 293.001,284.008 292.607 C 283.572 292.213,283.096 291.254,282.950 290.477 C 282.805 289.699,282.171 288.086,281.543 286.891 C 280.742 285.370,280.400 284.139,280.400 282.783 C 280.400 281.718,280.220 280.736,280.000 280.600 C 279.780 280.464,279.600 279.744,279.600 279.000 C 279.600 278.256,279.420 277.536,279.200 277.400 C 278.957 277.250,278.800 274.263,278.800 269.776 C 278.800 265.125,278.948 262.400,279.200 262.400 C 279.420 262.400,279.600 261.680,279.600 260.800 C 279.600 259.920,279.780 259.200,280.000 259.200 C 280.220 259.200,280.400 258.318,280.400 257.241 C 280.400 255.859,280.737 254.641,281.543 253.109 C 282.171 251.914,282.805 250.301,282.950 249.523 C 283.096 248.746,283.572 247.787,284.008 247.393 C 284.444 246.999,284.800 246.288,284.800 245.813 C 284.800 245.338,285.340 244.432,286.000 243.800 C 286.660 243.168,287.200 242.448,287.200 242.200 C 287.200 241.952,287.740 241.232,288.400 240.600 C 289.060 239.968,289.600 239.248,289.600 239.000 C 289.600 238.455,296.133 232.000,296.685 232.000 C 296.900 232.000,297.402 231.640,297.800 231.200 C 298.198 230.760,298.735 230.400,298.992 230.400 C 299.250 230.400,299.881 229.953,300.394 229.406 C 301.418 228.316,308.201 224.800,309.279 224.800 C 309.650 224.800,310.064 224.620,310.200 224.400 C 310.336 224.180,310.887 224.000,311.424 224.000 L 312.400 224.000 312.400 205.800 C 312.400 193.933,312.261 187.600,312.000 187.600 C 311.775 187.600,311.600 186.475,311.600 185.024 C 311.600 183.607,311.420 182.336,311.200 182.200 C 310.980 182.064,310.800 181.344,310.800 180.600 C 310.800 179.856,310.620 179.136,310.400 179.000 C 310.180 178.864,310.000 177.953,310.000 176.976 C 310.000 175.999,309.820 175.200,309.600 175.200 C 309.380 175.200,309.200 174.840,309.200 174.400 C 309.200 173.960,309.020 173.600,308.800 173.600 C 308.580 173.600,308.400 173.240,308.400 172.800 C 308.400 172.360,308.220 172.000,308.000 172.000 C 307.780 172.000,307.600 171.460,307.600 170.800 C 307.600 170.140,307.420 169.600,307.200 169.600 C 306.980 169.600,306.800 169.280,306.800 168.888 C 306.800 168.497,306.440 167.917,306.000 167.600 C 305.560 167.283,305.200 166.827,305.200 166.587 C 305.200 166.346,304.660 165.632,304.000 165.000 C 303.340 164.368,302.797 163.659,302.794 163.425 C 302.790 163.191,302.257 162.399,301.609 161.663 C 300.961 160.928,300.322 159.983,300.188 159.563 C 300.055 159.144,299.598 158.800,299.173 158.800 C 298.737 158.800,298.400 158.526,298.400 158.171 C 298.400 157.363,297.437 156.400,296.629 156.400 C 296.283 156.400,296.000 156.117,296.000 155.771 C 296.000 155.039,295.062 154.000,294.400 154.000 C 293.823 154.000,292.800 152.995,292.800 152.429 C 292.800 152.193,292.570 152.000,292.289 152.000 C 291.711 152.000,290.681 150.908,290.285 149.876 C 290.139 149.498,289.590 149.025,289.065 148.825 C 288.539 148.625,288.012 148.090,287.893 147.636 C 287.775 147.181,287.233 146.641,286.689 146.434 C 286.131 146.222,285.589 145.610,285.443 145.029 C 285.272 144.346,284.912 144.000,284.372 144.000 C 283.828 144.000,283.420 143.603,283.140 142.800 C 282.910 142.140,282.456 141.600,282.132 141.600 C 281.383 141.600,280.543 140.767,280.290 139.772 C 280.181 139.347,280.072 142.634,280.046 147.076 C 280.018 151.977,279.843 155.250,279.600 155.400 C 279.380 155.536,279.200 156.059,279.200 156.562 C 279.200 157.065,278.840 157.802,278.400 158.200 C 277.960 158.598,277.600 159.127,277.600 159.375 C 277.600 160.086,273.051 164.400,272.301 164.400 C 271.929 164.400,270.983 164.760,270.200 165.200 C 269.071 165.834,268.034 166.000,265.200 166.000 C 262.366 166.000,261.329 165.834,260.200 165.200 C 259.417 164.760,258.458 164.400,258.069 164.400 C 257.680 164.400,256.659 163.680,255.800 162.800 C 254.941 161.920,254.013 161.200,253.738 161.200 C 253.463 161.200,252.929 160.525,252.553 159.700 C 252.176 158.875,251.493 157.780,251.034 157.268 C 250.205 156.341,250.200 156.171,250.200 126.990 L 250.200 97.644 251.500 96.303 C 252.215 95.565,252.800 94.783,252.800 94.564 C 252.800 93.745,256.381 90.694,258.845 89.414 L 261.400 88.086 289.300 88.043 C 307.662 88.015,317.200 88.137,317.200 88.400 M63.400 115.600 C 63.264 115.820,62.111 116.000,60.838 116.000 C 58.525 116.000,56.520 116.691,55.593 117.808 C 55.323 118.134,54.885 118.400,54.621 118.400 C 54.356 118.400,53.717 118.850,53.200 119.400 C 52.683 119.950,52.022 120.400,51.730 120.400 C 51.439 120.400,51.200 120.636,51.200 120.925 C 51.200 121.214,50.660 121.968,50.000 122.600 C 49.340 123.232,48.800 124.138,48.800 124.613 C 48.800 125.088,48.440 125.802,48.000 126.200 C 47.560 126.598,47.200 127.335,47.200 127.838 C 47.200 128.341,47.020 128.864,46.800 129.000 C 46.577 129.138,46.400 130.996,46.400 133.200 C 46.400 135.404,46.577 137.262,46.800 137.400 C 47.020 137.536,47.200 137.966,47.200 138.356 C 47.200 139.338,48.936 142.672,50.110 143.945 C 50.645 144.525,51.200 145.332,51.343 145.738 C 51.487 146.144,51.963 146.570,52.402 146.685 C 52.841 146.799,53.200 147.133,53.200 147.426 C 53.200 148.040,57.909 150.400,59.134 150.400 C 59.584 150.400,60.064 150.580,60.200 150.800 C 60.339 151.025,62.263 151.200,64.600 151.200 C 66.937 151.200,68.861 151.025,69.000 150.800 C 69.136 150.580,69.584 150.400,69.995 150.400 C 70.406 150.400,71.013 150.130,71.343 149.800 C 71.673 149.470,72.333 149.200,72.811 149.200 C 73.288 149.200,74.183 148.660,74.800 148.000 C 75.417 147.340,76.209 146.800,76.560 146.800 C 76.912 146.800,77.200 146.512,77.200 146.160 C 77.200 145.809,77.740 145.017,78.400 144.400 C 79.060 143.783,79.600 143.031,79.600 142.728 C 79.600 142.425,79.960 141.917,80.400 141.600 C 80.840 141.283,81.200 140.703,81.200 140.312 C 81.200 139.920,81.380 139.600,81.600 139.600 C 81.822 139.600,82.000 138.532,82.000 137.195 C 82.000 135.872,82.223 134.432,82.496 133.995 C 82.891 133.362,82.891 133.038,82.496 132.405 C 82.223 131.968,82.000 130.568,82.000 129.294 C 82.000 127.435,81.842 126.862,81.200 126.400 C 80.760 126.083,80.400 125.503,80.400 125.112 C 80.400 124.720,80.220 124.400,80.000 124.400 C 79.780 124.400,79.600 124.126,79.600 123.791 C 79.600 122.833,75.470 118.950,73.260 117.830 C 72.158 117.272,71.143 116.632,71.005 116.408 C 70.866 116.183,69.694 116.000,68.400 116.000 C 67.106 116.000,65.936 115.820,65.800 115.600 C 65.664 115.380,65.124 115.200,64.600 115.200 C 64.076 115.200,63.536 115.380,63.400 115.600 M160.400 140.000 C 160.400 140.220,160.760 140.400,161.200 140.400 C 161.640 140.400,162.000 140.580,162.000 140.800 C 162.000 141.020,162.320 141.200,162.712 141.200 C 163.103 141.200,163.683 141.560,164.000 142.000 C 164.317 142.440,164.897 142.800,165.288 142.800 C 165.680 142.800,166.000 142.980,166.000 143.200 C 166.000 143.420,166.345 143.600,166.767 143.600 C 167.188 143.600,167.593 143.737,167.667 143.904 C 167.798 144.202,172.001 146.334,177.284 148.782 C 178.761 149.466,180.066 150.183,180.185 150.375 C 180.304 150.568,182.156 151.591,184.300 152.649 C 186.445 153.708,188.260 154.715,188.333 154.887 C 188.407 155.059,188.812 155.200,189.233 155.200 C 189.655 155.200,190.000 155.380,190.000 155.600 C 190.000 155.820,190.360 156.000,190.800 156.000 C 191.240 156.000,191.600 156.180,191.600 156.400 C 191.600 156.620,191.960 156.800,192.400 156.800 C 192.840 156.800,193.200 156.980,193.200 157.200 C 193.200 157.420,193.520 157.600,193.912 157.600 C 194.303 157.600,194.883 157.960,195.200 158.400 C 195.517 158.840,196.097 159.200,196.488 159.200 C 196.880 159.200,197.200 159.380,197.200 159.600 C 197.200 159.820,197.560 160.000,198.000 160.000 C 198.440 160.000,198.800 160.180,198.800 160.400 C 198.800 160.620,199.160 160.800,199.600 160.800 C 200.040 160.800,200.400 160.980,200.400 161.200 C 200.400 161.420,200.745 161.600,201.167 161.600 C 201.588 161.600,201.993 161.735,202.067 161.900 C 202.205 162.212,204.450 163.363,207.676 164.776 C 208.707 165.228,209.651 165.759,209.773 165.956 C 209.895 166.153,212.471 167.543,215.497 169.045 C 218.524 170.546,221.060 171.916,221.133 172.088 C 221.207 172.259,221.612 172.400,222.033 172.400 C 222.455 172.400,222.800 172.580,222.800 172.800 C 222.800 173.020,223.160 173.200,223.600 173.200 C 224.040 173.200,224.400 173.380,224.400 173.600 C 224.400 173.820,224.720 174.000,225.112 174.000 C 225.503 174.000,226.083 174.360,226.400 174.800 C 226.717 175.240,227.297 175.600,227.688 175.600 C 228.080 175.600,228.400 175.780,228.400 176.000 C 228.400 176.220,228.760 176.400,229.200 176.400 C 229.640 176.400,230.000 176.580,230.000 176.800 C 230.000 177.020,230.360 177.200,230.800 177.200 C 231.240 177.200,231.600 177.380,231.600 177.600 C 231.600 177.820,231.960 178.000,232.400 178.000 C 232.840 178.000,233.200 178.180,233.200 178.400 C 233.200 178.620,233.545 178.800,233.967 178.800 C 234.388 178.800,234.793 178.942,234.867 179.115 C 235.024 179.487,239.296 181.600,239.891 181.600 C 240.117 181.600,240.515 181.856,240.775 182.169 C 241.034 182.482,244.071 184.142,247.523 185.857 C 250.976 187.572,253.860 189.116,253.933 189.288 C 254.007 189.459,254.372 189.600,254.745 189.600 C 255.118 189.600,255.683 189.960,256.000 190.400 C 256.317 190.840,256.897 191.200,257.288 191.200 C 257.680 191.200,258.000 191.380,258.000 191.600 C 258.000 191.820,258.360 192.000,258.800 192.000 C 259.240 192.000,259.600 192.180,259.600 192.400 C 259.600 192.620,259.960 192.800,260.400 192.800 C 260.840 192.800,261.200 192.980,261.200 193.200 C 261.200 193.420,261.560 193.600,262.000 193.600 C 262.440 193.600,262.800 193.780,262.800 194.000 C 262.800 194.220,263.160 194.400,263.600 194.400 C 264.040 194.400,264.400 194.580,264.400 194.800 C 264.400 195.020,264.760 195.200,265.200 195.200 C 265.640 195.200,266.000 195.321,266.000 195.469 C 266.000 195.971,264.678 197.200,264.138 197.200 C 263.842 197.200,263.600 197.380,263.600 197.600 C 263.600 197.820,263.366 198.000,263.080 198.000 C 262.344 198.000,260.407 198.941,260.403 199.300 C 260.401 199.465,260.166 199.600,259.880 199.600 C 259.144 199.600,257.207 200.541,257.203 200.900 C 257.201 201.065,256.840 201.200,256.400 201.200 C 255.960 201.200,255.600 201.380,255.600 201.600 C 255.600 201.820,255.336 202.000,255.014 202.000 C 254.312 202.000,250.656 203.978,250.467 204.461 C 250.393 204.647,249.988 204.800,249.567 204.800 C 249.145 204.800,248.800 204.980,248.800 205.200 C 248.800 205.420,248.440 205.600,248.000 205.600 C 247.560 205.600,247.200 205.780,247.200 206.000 C 247.200 206.220,246.840 206.400,246.400 206.400 C 245.960 206.400,245.600 206.580,245.600 206.800 C 245.600 207.020,245.240 207.200,244.800 207.200 C 244.360 207.200,244.000 207.380,244.000 207.600 C 244.000 207.820,243.640 208.000,243.200 208.000 C 242.760 208.000,242.400 208.180,242.400 208.400 C 242.400 208.620,242.040 208.800,241.600 208.800 C 241.160 208.800,240.800 208.980,240.800 209.200 C 240.800 209.420,240.440 209.600,240.000 209.600 C 239.560 209.600,239.200 209.780,239.200 210.000 C 239.200 210.220,238.855 210.400,238.433 210.400 C 238.012 210.400,237.607 210.542,237.533 210.715 C 237.460 210.888,236.368 211.529,235.108 212.140 C 233.847 212.751,232.722 213.403,232.607 213.588 C 232.493 213.773,230.644 214.791,228.500 215.849 C 226.355 216.908,224.540 217.915,224.467 218.087 C 224.393 218.259,224.093 218.400,223.800 218.400 C 223.506 218.400,222.079 219.030,220.627 219.800 C 219.176 220.570,217.721 221.200,217.394 221.200 C 217.067 221.200,216.800 221.380,216.800 221.600 C 216.800 221.820,216.480 222.000,216.088 222.000 C 215.697 222.000,215.117 222.360,214.800 222.800 C 214.483 223.240,213.903 223.600,213.512 223.600 C 213.120 223.600,212.800 223.780,212.800 224.000 C 212.800 224.220,212.440 224.400,212.000 224.400 C 211.560 224.400,211.200 224.580,211.200 224.800 C 211.200 225.020,210.840 225.200,210.400 225.200 C 209.960 225.200,209.600 225.380,209.600 225.600 C 209.600 225.820,209.240 226.000,208.800 226.000 C 208.360 226.000,208.000 226.180,208.000 226.400 C 208.000 226.620,207.640 226.800,207.200 226.800 C 206.760 226.800,206.400 226.980,206.400 227.200 C 206.400 227.420,206.055 227.600,205.633 227.600 C 205.212 227.600,204.807 227.741,204.733 227.913 C 204.660 228.085,202.845 229.092,200.700 230.151 C 198.556 231.209,196.707 232.227,196.593 232.412 C 196.478 232.597,195.353 233.249,194.092 233.860 C 192.832 234.471,191.740 235.112,191.667 235.285 C 191.593 235.458,191.309 235.600,191.034 235.600 C 190.760 235.600,189.650 236.049,188.568 236.598 C 187.486 237.147,186.375 237.597,186.100 237.598 C 185.825 237.599,185.600 237.780,185.600 238.000 C 185.600 238.220,185.240 238.400,184.800 238.400 C 184.360 238.400,184.000 238.580,184.000 238.800 C 184.000 239.020,183.640 239.200,183.200 239.200 C 182.760 239.200,182.400 239.380,182.400 239.600 C 182.400 239.820,182.040 240.000,181.600 240.000 C 181.160 240.000,180.800 240.180,180.800 240.400 C 180.800 240.620,180.480 240.800,180.088 240.800 C 179.697 240.800,179.117 241.160,178.800 241.600 C 178.483 242.040,177.903 242.400,177.512 242.400 C 177.120 242.400,176.800 242.580,176.800 242.800 C 176.800 243.020,176.440 243.200,176.000 243.200 C 175.560 243.200,175.200 243.380,175.200 243.600 C 175.200 243.820,174.840 244.000,174.400 244.000 C 173.960 244.000,173.600 244.180,173.600 244.400 C 173.600 244.620,173.255 244.800,172.833 244.800 C 172.412 244.800,172.007 244.941,171.933 245.112 C 171.860 245.284,169.336 246.647,166.325 248.141 C 163.314 249.635,160.638 251.113,160.380 251.424 C 160.121 251.736,159.750 251.893,159.555 251.772 C 158.864 251.345,159.108 139.600,159.800 139.600 C 160.130 139.600,160.400 139.780,160.400 140.000 M322.200 252.251 C 320.628 252.651,317.314 254.412,316.563 255.244 C 316.144 255.710,315.392 256.248,314.893 256.439 C 314.394 256.630,313.813 257.239,313.603 257.793 C 313.392 258.347,312.945 258.800,312.610 258.800 C 312.234 258.800,312.000 259.165,312.000 259.751 C 312.000 260.274,311.734 260.923,311.408 261.193 C 310.639 261.832,309.600 263.926,309.600 264.838 C 309.600 265.231,309.420 265.664,309.200 265.800 C 308.977 265.938,308.800 267.796,308.800 270.000 C 308.800 272.204,308.977 274.062,309.200 274.200 C 309.420 274.336,309.600 274.804,309.600 275.240 C 309.600 275.677,309.960 276.420,310.400 276.892 C 310.840 277.364,311.200 278.083,311.200 278.488 C 311.200 279.289,316.306 284.800,317.048 284.800 C 317.298 284.800,317.723 285.066,317.993 285.392 C 318.920 286.509,320.925 287.200,323.238 287.200 C 324.511 287.200,325.664 287.380,325.800 287.600 C 325.936 287.820,326.476 288.000,327.000 288.000 C 327.524 288.000,328.064 287.820,328.200 287.600 C 328.336 287.380,329.585 287.200,330.975 287.200 C 332.769 287.200,333.651 287.020,334.016 286.580 C 334.299 286.239,335.266 285.623,336.165 285.210 C 337.064 284.797,338.065 284.086,338.388 283.630 C 338.712 283.173,339.297 282.800,339.688 282.800 C 340.080 282.800,340.400 282.512,340.400 282.160 C 340.400 281.809,340.940 281.017,341.600 280.400 C 342.283 279.762,342.800 278.869,342.800 278.328 C 342.800 277.805,343.160 277.117,343.600 276.800 C 344.040 276.483,344.400 275.824,344.400 275.335 C 344.400 274.847,344.580 274.336,344.800 274.200 C 345.023 274.062,345.200 272.204,345.200 270.000 C 345.200 267.796,345.023 265.938,344.800 265.800 C 344.580 265.664,344.400 265.220,344.400 264.814 C 344.400 263.838,342.838 260.856,341.669 259.600 C 341.157 259.050,340.574 258.190,340.375 257.690 C 340.175 257.189,339.694 256.668,339.306 256.531 C 338.918 256.395,338.125 255.845,337.545 255.310 C 334.698 252.683,326.734 251.096,322.200 252.251 "
       stroke="none"
       fill="#fcfcfc"
       fill-rule="evenodd" />
    <path
       id="path1"
       d="M57.200 85.600 C 57.200 85.820,56.480 86.000,55.600 86.000 C 54.720 86.000,54.000 86.180,54.000 86.400 C 54.000 86.620,53.118 86.800,52.041 86.800 C 50.637 86.800,49.434 87.140,47.800 88.000 C 46.545 88.660,45.302 89.200,45.038 89.200 C 44.311 89.200,40.533 91.158,39.984 91.819 C 39.719 92.139,39.276 92.400,39.000 92.400 C 38.724 92.400,38.271 92.673,37.994 93.007 C 37.717 93.341,36.840 93.909,36.045 94.268 C 34.516 94.959,26.800 102.272,26.800 103.031 C 26.800 103.276,26.440 103.802,26.000 104.200 C 25.560 104.598,25.200 105.135,25.200 105.392 C 25.200 105.650,24.753 106.281,24.206 106.794 C 23.222 107.719,19.600 114.557,19.600 115.491 C 19.600 115.758,19.240 116.617,18.800 117.400 C 18.360 118.183,18.000 119.168,18.000 119.589 C 18.000 120.009,17.820 120.464,17.600 120.600 C 17.380 120.736,17.200 121.906,17.200 123.200 C 17.200 124.494,17.020 125.664,16.800 125.800 C 16.262 126.133,16.262 140.267,16.800 140.600 C 17.020 140.736,17.200 142.007,17.200 143.424 C 17.200 144.875,17.375 146.000,17.600 146.000 C 17.820 146.000,18.000 146.439,18.000 146.976 C 18.000 147.513,18.180 148.064,18.400 148.200 C 18.620 148.336,18.800 148.797,18.800 149.224 C 18.800 149.651,18.980 150.000,19.200 150.000 C 19.420 150.000,19.600 150.439,19.600 150.976 C 19.600 151.513,19.780 152.064,20.000 152.200 C 20.220 152.336,20.400 152.865,20.400 153.375 C 20.400 153.885,20.679 154.534,21.020 154.816 C 21.361 155.099,21.975 156.066,22.385 156.965 C 22.796 157.864,23.597 159.036,24.166 159.570 C 24.735 160.103,25.200 160.958,25.200 161.470 C 25.200 162.038,25.438 162.400,25.813 162.400 C 26.149 162.400,26.534 162.715,26.667 163.100 C 26.987 164.026,34.053 171.200,34.645 171.200 C 34.899 171.200,35.201 171.560,35.316 172.000 C 35.453 172.524,35.862 172.800,36.501 172.800 C 37.037 172.800,37.814 173.174,38.228 173.631 C 38.642 174.088,39.720 174.799,40.625 175.211 C 41.529 175.623,42.501 176.239,42.784 176.580 C 43.066 176.921,43.715 177.200,44.225 177.200 C 44.735 177.200,45.264 177.380,45.400 177.600 C 45.536 177.820,46.042 178.013,46.524 178.029 C 47.006 178.045,47.940 178.375,48.600 178.762 L 49.800 179.465 49.903 203.332 C 49.970 218.782,50.146 227.200,50.403 227.200 C 50.621 227.200,50.800 227.920,50.800 228.800 C 50.800 229.680,50.980 230.400,51.200 230.400 C 51.420 230.400,51.600 230.839,51.600 231.376 C 51.600 231.913,51.780 232.464,52.000 232.600 C 52.220 232.736,52.400 233.538,52.400 234.383 C 52.400 235.316,52.871 236.814,53.600 238.200 C 54.260 239.455,54.800 240.876,54.800 241.358 C 54.800 242.272,57.893 248.745,58.893 249.924 C 59.208 250.296,59.756 251.230,60.110 252.000 C 60.464 252.770,61.124 253.713,61.577 254.096 C 62.030 254.479,62.400 255.164,62.400 255.618 C 62.400 256.099,63.402 257.428,64.800 258.800 C 66.120 260.096,67.200 261.346,67.200 261.578 C 67.200 261.810,72.330 267.126,78.600 273.390 C 84.870 279.654,90.000 284.874,90.000 284.989 C 90.000 285.105,86.490 285.200,82.200 285.200 C 77.267 285.200,74.400 285.347,74.400 285.600 C 74.400 285.820,74.040 286.000,73.600 286.000 C 73.160 286.000,72.800 286.180,72.800 286.400 C 72.800 286.620,72.346 286.800,71.791 286.800 C 70.713 286.800,66.400 290.722,66.400 291.703 C 66.400 291.989,66.040 292.483,65.600 292.800 C 65.160 293.117,64.800 293.776,64.800 294.265 C 64.800 294.753,64.620 295.264,64.400 295.400 C 63.876 295.724,63.876 303.476,64.400 303.800 C 64.620 303.936,64.800 304.639,64.800 305.362 C 64.800 306.168,65.109 306.956,65.600 307.400 C 66.040 307.798,66.400 308.332,66.400 308.586 C 66.400 309.234,69.895 312.400,70.611 312.400 C 70.935 312.400,71.200 312.580,71.200 312.800 C 71.200 313.020,71.560 313.200,72.000 313.200 C 72.440 313.200,72.801 313.335,72.803 313.500 C 72.816 314.697,75.186 314.800,102.680 314.800 C 120.893 314.800,130.400 314.663,130.400 314.400 C 130.400 314.180,130.760 314.000,131.200 314.000 C 131.640 314.000,132.000 313.820,132.000 313.600 C 132.000 313.380,132.360 313.200,132.800 313.200 C 133.240 313.200,133.600 313.020,133.600 312.800 C 133.600 312.580,133.875 312.400,134.211 312.400 C 134.921 312.400,138.400 309.042,138.400 308.356 C 138.400 308.101,138.850 307.475,139.400 306.965 L 140.400 306.038 140.400 276.062 C 140.400 249.785,140.326 246.057,139.800 245.855 C 139.470 245.729,139.200 245.259,139.200 244.813 C 139.200 244.366,139.020 244.000,138.800 244.000 C 138.580 244.000,138.400 243.640,138.400 243.200 C 138.400 242.738,138.133 242.400,137.769 242.400 C 137.421 242.400,136.446 241.680,135.600 240.800 C 134.586 239.745,133.712 239.200,133.031 239.200 C 132.464 239.200,132.000 239.020,132.000 238.800 C 132.000 238.580,131.640 238.400,131.200 238.400 C 130.760 238.400,130.400 238.220,130.400 238.000 C 130.400 237.759,128.733 237.600,126.200 237.600 C 123.667 237.600,122.000 237.759,122.000 238.000 C 122.000 238.220,121.640 238.400,121.200 238.400 C 120.760 238.400,120.400 238.580,120.400 238.800 C 120.400 239.020,119.946 239.200,119.391 239.200 C 118.349 239.200,114.000 243.108,114.000 244.044 C 114.000 244.298,113.595 244.857,113.100 245.286 C 112.225 246.045,112.196 246.312,112.066 255.056 C 111.946 263.186,111.869 264.034,111.266 263.921 C 110.900 263.852,110.435 263.421,110.234 262.964 C 110.032 262.507,109.492 261.968,109.034 261.766 C 108.575 261.565,108.022 260.995,107.805 260.500 C 107.588 260.005,107.260 259.600,107.077 259.600 C 106.613 259.600,105.807 258.737,105.490 257.900 C 105.344 257.515,105.027 257.200,104.784 257.200 C 104.224 257.200,103.433 256.406,103.090 255.500 C 102.944 255.115,102.627 254.800,102.384 254.800 C 101.879 254.800,101.197 254.119,100.563 252.983 C 100.323 252.552,99.638 251.960,99.041 251.668 C 98.444 251.375,97.790 250.700,97.588 250.168 C 97.385 249.635,97.022 249.200,96.781 249.200 C 96.224 249.200,95.433 248.404,95.090 247.500 C 94.944 247.115,94.627 246.800,94.384 246.800 C 93.867 246.800,92.800 245.806,92.800 245.323 C 92.800 245.140,92.398 244.812,91.907 244.595 C 91.416 244.378,90.807 243.780,90.554 243.267 C 90.301 242.754,89.533 241.756,88.847 241.048 C 88.161 240.341,87.600 239.573,87.600 239.343 C 87.600 239.113,87.240 238.598,86.800 238.200 C 86.360 237.802,86.000 237.256,86.000 236.987 C 86.000 236.718,85.734 236.277,85.408 236.007 C 84.724 235.439,83.600 233.309,83.600 232.579 C 83.600 232.305,83.060 231.055,82.400 229.800 C 81.740 228.545,81.200 227.008,81.200 226.383 C 81.200 225.758,81.020 225.136,80.800 225.000 C 80.580 224.864,80.400 223.953,80.400 222.976 C 80.400 221.999,80.220 221.200,80.000 221.200 C 79.776 221.200,79.600 220.093,79.600 218.680 C 79.600 217.294,79.418 215.978,79.196 215.756 C 78.932 215.492,78.828 209.023,78.896 197.176 L 79.000 179.000 80.100 178.873 C 80.705 178.804,81.200 178.579,81.200 178.373 C 81.200 178.168,81.740 178.000,82.400 178.000 C 83.060 178.000,83.600 177.820,83.600 177.600 C 83.600 177.380,83.834 177.200,84.120 177.200 C 84.856 177.200,86.793 176.259,86.797 175.900 C 86.799 175.735,87.160 175.600,87.600 175.600 C 88.040 175.600,88.400 175.420,88.400 175.200 C 88.400 174.980,88.639 174.800,88.930 174.800 C 89.222 174.800,89.883 174.350,90.400 173.800 C 90.917 173.250,91.628 172.800,91.981 172.800 C 92.335 172.800,92.883 172.440,93.200 172.000 C 93.517 171.560,93.986 171.200,94.241 171.200 C 94.852 171.200,101.600 164.383,101.600 163.767 C 101.600 163.504,102.138 162.865,102.796 162.345 C 103.454 161.825,103.994 161.125,103.996 160.788 C 103.998 160.452,104.360 159.917,104.800 159.600 C 105.240 159.283,105.600 158.703,105.600 158.312 C 105.600 157.920,105.760 157.600,105.957 157.600 C 106.153 157.600,106.426 157.150,106.564 156.600 C 106.702 156.050,106.992 155.600,107.208 155.600 C 107.423 155.600,107.600 155.240,107.600 154.800 C 107.600 154.360,107.780 154.000,108.000 154.000 C 108.220 154.000,108.400 153.658,108.400 153.241 C 108.400 152.823,108.940 151.455,109.600 150.200 C 110.454 148.577,110.800 147.360,110.800 145.983 C 110.800 144.918,110.980 143.936,111.200 143.800 C 111.420 143.664,111.600 142.944,111.600 142.200 C 111.600 141.456,111.780 140.736,112.000 140.600 C 112.243 140.450,112.400 137.537,112.400 133.200 C 112.400 128.863,112.243 125.950,112.000 125.800 C 111.780 125.664,111.600 124.944,111.600 124.200 C 111.600 123.456,111.420 122.736,111.200 122.600 C 110.980 122.464,110.800 121.564,110.800 120.600 C 110.800 119.636,110.620 118.736,110.400 118.600 C 110.180 118.464,110.000 117.913,110.000 117.376 C 110.000 116.839,109.820 116.400,109.600 116.400 C 109.380 116.400,109.200 116.040,109.200 115.600 C 109.200 115.160,109.020 114.800,108.800 114.800 C 108.580 114.800,108.400 114.260,108.400 113.600 C 108.400 112.940,108.220 112.400,108.000 112.400 C 107.780 112.400,107.600 112.152,107.600 111.849 C 107.600 111.546,107.330 111.074,107.000 110.800 C 106.670 110.526,106.400 109.964,106.400 109.551 C 106.400 109.138,106.220 108.800,106.000 108.800 C 105.780 108.800,105.600 108.558,105.600 108.262 C 105.600 107.966,105.240 107.398,104.800 107.000 C 104.360 106.602,104.000 106.070,104.000 105.819 C 104.000 105.568,103.280 104.659,102.400 103.800 C 101.520 102.941,100.800 102.054,100.800 101.830 C 100.800 101.281,96.338 96.800,95.791 96.800 C 95.552 96.800,94.746 96.170,94.000 95.400 C 93.254 94.630,92.436 94.000,92.184 94.000 C 91.931 94.000,91.398 93.640,91.000 93.200 C 90.602 92.760,90.034 92.400,89.738 92.400 C 89.442 92.400,89.200 92.220,89.200 92.000 C 89.200 91.780,88.880 91.600,88.488 91.600 C 88.097 91.600,87.517 91.240,87.200 90.800 C 86.883 90.360,86.303 90.000,85.912 90.000 C 85.520 90.000,85.200 89.820,85.200 89.600 C 85.200 89.380,84.660 89.200,84.000 89.200 C 83.340 89.200,82.800 89.020,82.800 88.800 C 82.800 88.580,82.440 88.400,82.000 88.400 C 81.560 88.400,81.200 88.220,81.200 88.000 C 81.200 87.780,80.840 87.600,80.400 87.600 C 79.960 87.600,79.600 87.420,79.600 87.200 C 79.600 86.980,78.621 86.800,77.424 86.800 C 76.227 86.800,75.136 86.620,75.000 86.400 C 74.864 86.180,74.144 86.000,73.400 86.000 C 72.656 86.000,71.936 85.820,71.800 85.600 C 71.650 85.357,68.729 85.200,64.376 85.200 C 59.859 85.200,57.200 85.348,57.200 85.600 M65.800 115.200 C 65.936 115.420,67.167 115.600,68.535 115.600 C 70.565 115.600,71.130 115.748,71.600 116.400 C 71.917 116.840,72.497 117.200,72.888 117.200 C 73.280 117.200,73.600 117.380,73.600 117.600 C 73.600 117.820,73.849 118.000,74.153 118.000 C 74.895 118.000,79.600 122.679,79.600 123.417 C 79.600 123.738,79.780 124.000,80.000 124.000 C 80.220 124.000,80.400 124.320,80.400 124.712 C 80.400 125.103,80.760 125.683,81.200 126.000 C 81.852 126.470,82.000 127.035,82.000 129.065 C 82.000 130.433,82.180 131.664,82.400 131.800 C 82.620 131.936,82.800 132.566,82.800 133.200 C 82.800 133.834,82.620 134.464,82.400 134.600 C 82.180 134.736,82.000 136.007,82.000 137.424 C 82.000 138.875,81.825 140.000,81.600 140.000 C 81.380 140.000,81.200 140.320,81.200 140.712 C 81.200 141.103,80.840 141.683,80.400 142.000 C 79.960 142.317,79.600 142.865,79.600 143.219 C 79.600 143.572,79.150 144.283,78.600 144.800 C 78.050 145.317,77.600 145.978,77.600 146.270 C 77.600 146.561,77.312 146.800,76.960 146.800 C 76.609 146.800,75.817 147.340,75.200 148.000 C 74.583 148.660,73.735 149.200,73.315 149.200 C 72.895 149.200,72.164 149.560,71.692 150.000 C 71.220 150.440,70.477 150.800,70.040 150.800 C 69.604 150.800,69.136 150.980,69.000 151.200 C 68.861 151.425,66.937 151.600,64.600 151.600 C 62.263 151.600,60.339 151.425,60.200 151.200 C 60.064 150.980,59.652 150.800,59.284 150.800 C 58.206 150.800,53.221 148.248,53.210 147.690 C 53.205 147.410,52.745 147.007,52.190 146.796 C 51.634 146.585,51.068 146.094,50.931 145.706 C 50.795 145.318,50.245 144.525,49.710 143.945 C 48.524 142.659,46.800 139.334,46.800 138.332 C 46.800 137.929,46.620 137.600,46.400 137.600 C 46.159 137.600,46.000 135.941,46.000 133.424 C 46.000 131.071,46.175 129.139,46.400 129.000 C 46.620 128.864,46.800 128.341,46.800 127.838 C 46.800 127.335,47.160 126.598,47.600 126.200 C 48.040 125.802,48.400 125.088,48.400 124.613 C 48.400 124.138,48.940 123.232,49.600 122.600 C 50.260 121.968,50.800 121.214,50.800 120.925 C 50.800 120.636,51.036 120.400,51.325 120.400 C 51.614 120.400,52.368 119.860,53.000 119.200 C 53.632 118.540,54.364 118.000,54.626 118.000 C 54.888 118.000,55.323 117.734,55.593 117.408 C 56.523 116.287,58.526 115.600,60.861 115.600 C 62.154 115.600,63.200 115.421,63.200 115.200 C 63.200 114.980,63.729 114.800,64.376 114.800 C 65.023 114.800,65.664 114.980,65.800 115.200 M159.600 195.909 L 159.600 251.739 160.500 250.946 C 160.995 250.509,162.660 249.534,164.200 248.778 C 165.740 248.022,167.060 247.268,167.133 247.102 C 167.207 246.936,167.612 246.800,168.033 246.800 C 168.455 246.800,168.800 246.620,168.800 246.400 C 168.800 246.180,169.160 246.000,169.600 246.000 C 170.040 246.000,170.400 245.820,170.400 245.600 C 170.400 245.380,170.745 245.200,171.167 245.200 C 171.588 245.200,171.993 245.064,172.067 244.898 C 172.219 244.553,175.014 243.086,187.474 236.813 C 192.355 234.355,196.531 232.124,196.755 231.855 C 196.978 231.585,197.800 231.114,198.581 230.808 C 199.361 230.501,200.000 230.104,200.000 229.925 C 200.000 229.746,200.234 229.600,200.520 229.600 C 201.256 229.600,203.193 228.659,203.197 228.300 C 203.199 228.135,203.560 228.000,204.000 228.000 C 204.440 228.000,204.800 227.820,204.800 227.600 C 204.800 227.380,205.160 227.200,205.600 227.200 C 206.040 227.200,206.400 227.020,206.400 226.800 C 206.400 226.580,206.760 226.400,207.200 226.400 C 207.640 226.400,208.000 226.264,208.000 226.098 C 208.000 225.931,208.585 225.546,209.300 225.241 C 212.796 223.750,213.970 223.172,214.174 222.843 C 214.296 222.645,218.435 220.472,223.372 218.014 C 228.309 215.556,232.531 213.324,232.755 213.055 C 232.978 212.785,233.800 212.314,234.581 212.008 C 235.361 211.701,236.000 211.304,236.000 211.125 C 236.000 210.946,236.253 210.800,236.562 210.800 C 237.154 210.800,240.455 209.191,240.804 208.732 C 240.916 208.584,241.546 208.331,242.204 208.170 C 242.862 208.009,243.490 207.761,243.600 207.620 C 243.710 207.479,245.194 206.682,246.897 205.849 C 248.600 205.016,250.085 204.186,250.196 204.006 C 250.308 203.825,253.730 202.023,257.800 200.000 C 261.870 197.977,265.294 196.171,265.409 195.986 C 265.594 195.686,263.069 194.351,259.300 192.755 C 258.585 192.452,258.000 192.069,258.000 191.902 C 258.000 191.736,257.680 191.600,257.288 191.600 C 256.897 191.600,256.317 191.240,256.000 190.800 C 255.683 190.360,255.103 190.000,254.712 190.000 C 254.320 190.000,254.000 189.820,254.000 189.600 C 254.000 189.380,253.640 189.200,253.200 189.200 C 252.760 189.200,252.400 189.020,252.400 188.800 C 252.400 188.580,252.040 188.400,251.600 188.400 C 251.160 188.400,250.800 188.220,250.800 188.000 C 250.800 187.780,250.455 187.600,250.033 187.600 C 249.612 187.600,249.207 187.459,249.133 187.287 C 249.060 187.115,247.245 186.108,245.100 185.049 C 242.956 183.991,241.110 182.977,240.998 182.797 C 240.829 182.524,231.379 177.787,228.000 176.282 C 227.450 176.037,226.640 175.539,226.200 175.175 C 225.760 174.812,224.815 174.264,224.100 173.959 C 223.385 173.654,222.800 173.269,222.800 173.102 C 222.800 172.936,222.566 172.800,222.280 172.800 C 221.544 172.800,219.607 171.859,219.603 171.500 C 219.601 171.335,219.240 171.200,218.800 171.200 C 218.360 171.200,218.000 171.020,218.000 170.800 C 218.000 170.580,217.640 170.400,217.200 170.400 C 216.760 170.400,216.400 170.220,216.400 170.000 C 216.400 169.780,216.040 169.600,215.600 169.600 C 215.160 169.600,214.800 169.420,214.800 169.200 C 214.800 168.980,214.440 168.800,214.000 168.800 C 213.560 168.800,213.200 168.654,213.200 168.475 C 213.200 168.296,212.561 167.899,211.781 167.592 C 211.000 167.286,210.175 166.811,209.948 166.537 C 209.589 166.105,201.047 161.783,196.717 159.843 C 195.901 159.478,195.136 159.020,195.017 158.827 C 194.897 158.633,193.044 157.609,190.900 156.551 C 188.755 155.492,186.940 154.485,186.867 154.313 C 186.793 154.141,186.388 154.000,185.967 154.000 C 185.545 154.000,185.200 153.820,185.200 153.600 C 185.200 153.380,184.840 153.200,184.400 153.200 C 183.960 153.200,183.600 153.020,183.600 152.800 C 183.600 152.580,183.240 152.400,182.800 152.400 C 182.360 152.400,182.000 152.220,182.000 152.000 C 182.000 151.780,181.680 151.600,181.288 151.600 C 180.897 151.600,180.317 151.240,180.000 150.800 C 179.683 150.360,179.118 150.000,178.745 150.000 C 178.372 150.000,178.007 149.859,177.933 149.688 C 177.769 149.303,165.540 143.200,164.934 143.200 C 164.694 143.200,164.281 142.939,164.016 142.619 C 163.751 142.300,162.649 141.598,161.567 141.059 L 159.600 140.078 159.600 195.909 "
       stroke="none"
       fill="#1f6c0e"
       fill-rule="evenodd" />
    <path
       id="path2"
       d="M258.849 89.812 C 256.301 91.136,253.200 93.768,253.200 94.606 C 253.200 94.851,252.660 95.568,252.000 96.200 C 250.965 97.192,250.800 97.638,250.800 99.451 C 250.800 100.607,250.620 101.664,250.400 101.800 C 250.140 101.961,250.000 110.796,250.000 127.000 C 250.000 143.204,250.140 152.039,250.400 152.200 C 250.620 152.336,250.800 153.399,250.800 154.562 C 250.800 156.092,250.999 156.857,251.522 157.329 C 251.919 157.689,252.493 158.617,252.797 159.391 C 253.101 160.166,253.549 160.800,253.793 160.800 C 254.038 160.800,254.941 161.520,255.800 162.400 C 256.659 163.280,257.680 164.000,258.069 164.000 C 258.458 164.000,259.417 164.360,260.200 164.800 C 261.329 165.434,262.366 165.600,265.200 165.600 C 268.034 165.600,269.071 165.434,270.200 164.800 C 270.983 164.360,271.940 164.000,272.326 164.000 C 273.074 164.000,277.200 160.064,277.200 159.349 C 277.200 159.115,277.560 158.598,278.000 158.200 C 278.440 157.802,278.800 157.065,278.800 156.562 C 278.800 156.059,278.980 155.536,279.200 155.400 C 279.445 155.249,279.600 152.063,279.600 147.176 C 279.600 140.086,279.904 137.659,280.504 139.955 C 280.613 140.370,281.219 140.955,281.851 141.256 C 282.483 141.557,283.165 142.178,283.366 142.635 C 283.568 143.093,284.108 143.632,284.566 143.834 C 285.025 144.035,285.565 144.575,285.766 145.034 C 285.968 145.492,286.508 146.032,286.966 146.234 C 287.425 146.435,287.965 146.975,288.166 147.434 C 288.368 147.892,288.907 148.432,289.365 148.634 C 289.822 148.835,290.437 149.505,290.731 150.122 C 291.025 150.739,291.676 151.401,292.178 151.592 C 292.680 151.782,293.188 152.310,293.307 152.764 C 293.425 153.219,294.007 153.775,294.600 154.000 C 295.193 154.225,295.775 154.781,295.893 155.236 C 296.012 155.690,296.552 156.230,297.093 156.436 C 297.635 156.641,298.161 157.130,298.263 157.521 C 298.366 157.912,298.840 158.404,299.318 158.616 C 299.795 158.827,300.391 159.416,300.643 159.926 C 300.894 160.435,301.572 161.344,302.150 161.947 C 302.727 162.550,303.200 163.225,303.200 163.447 C 303.200 163.669,303.740 164.368,304.400 165.000 C 305.060 165.632,305.600 166.304,305.600 166.492 C 305.600 166.680,305.960 167.220,306.400 167.692 C 306.840 168.164,307.200 168.787,307.200 169.075 C 307.200 169.364,307.380 169.600,307.600 169.600 C 307.820 169.600,308.000 170.125,308.000 170.767 C 308.000 171.408,308.135 171.993,308.300 172.067 C 309.005 172.380,310.400 175.800,310.400 177.214 C 310.400 178.060,310.580 178.864,310.800 179.000 C 311.020 179.136,311.200 179.831,311.200 180.544 C 311.200 181.257,311.425 182.065,311.700 182.340 C 312.083 182.723,312.232 187.682,312.339 203.620 L 312.478 224.400 311.462 224.400 C 310.904 224.400,310.336 224.580,310.200 224.800 C 310.064 225.020,309.650 225.200,309.279 225.200 C 308.297 225.200,301.424 228.690,300.588 229.613 C 300.197 230.046,299.662 230.400,299.400 230.400 C 299.138 230.400,298.598 230.760,298.200 231.200 C 297.802 231.640,297.275 232.000,297.029 232.000 C 296.466 232.000,290.000 238.470,290.000 239.034 C 290.000 239.263,289.460 239.968,288.800 240.600 C 288.140 241.232,287.600 241.952,287.600 242.200 C 287.600 242.448,287.060 243.168,286.400 243.800 C 285.740 244.432,285.200 245.344,285.200 245.826 C 285.200 246.308,284.934 246.923,284.608 247.193 C 283.924 247.761,282.800 249.891,282.800 250.621 C 282.800 250.895,282.260 252.145,281.600 253.400 C 280.749 255.018,280.400 256.241,280.400 257.607 C 280.400 258.793,280.208 259.597,279.900 259.700 C 279.518 259.827,279.400 262.192,279.400 269.713 C 279.400 277.057,279.527 279.687,279.900 280.060 C 280.175 280.335,280.400 281.406,280.400 282.439 C 280.400 283.754,280.761 285.004,281.600 286.600 C 282.260 287.855,282.800 289.105,282.800 289.379 C 282.800 290.109,283.924 292.239,284.608 292.807 C 284.934 293.077,285.200 293.692,285.200 294.174 C 285.200 294.656,285.740 295.568,286.400 296.200 C 287.060 296.832,287.600 297.552,287.600 297.800 C 287.600 298.048,288.140 298.768,288.800 299.400 C 289.460 300.032,290.000 300.717,290.000 300.921 C 290.000 301.443,295.307 306.798,295.825 306.799 C 296.059 306.800,296.768 307.340,297.400 308.000 C 298.032 308.660,298.764 309.200,299.026 309.200 C 299.288 309.200,299.734 309.479,300.016 309.820 C 300.299 310.161,301.300 310.790,302.241 311.219 C 303.182 311.647,304.056 312.167,304.184 312.374 C 304.479 312.852,306.764 314.000,307.421 314.000 C 307.695 314.000,308.945 314.540,310.200 315.200 C 311.823 316.054,313.040 316.400,314.417 316.400 C 315.482 316.400,316.464 316.580,316.600 316.800 C 316.736 317.020,317.467 317.200,318.224 317.200 C 318.981 317.200,319.600 317.380,319.600 317.600 C 319.600 317.852,322.259 318.000,326.776 318.000 C 331.129 318.000,334.050 317.843,334.200 317.600 C 334.336 317.380,335.056 317.200,335.800 317.200 C 336.544 317.200,337.264 317.020,337.400 316.800 C 337.536 316.580,338.518 316.400,339.583 316.400 C 340.960 316.400,342.177 316.054,343.800 315.200 C 345.055 314.540,346.305 314.000,346.579 314.000 C 347.236 314.000,349.521 312.852,349.816 312.374 C 349.944 312.167,350.857 311.630,351.844 311.180 C 352.832 310.730,353.740 310.100,353.863 309.781 C 353.985 309.461,354.426 309.200,354.843 309.200 C 355.259 309.200,355.600 309.050,355.600 308.868 C 355.600 308.685,356.095 308.280,356.700 307.968 C 358.102 307.244,364.800 300.561,364.800 299.885 C 364.800 299.606,365.160 299.117,365.600 298.800 C 366.040 298.483,366.400 298.008,366.400 297.746 C 366.400 297.483,366.940 296.758,367.600 296.135 C 368.260 295.512,368.800 294.619,368.800 294.150 C 368.800 293.682,369.066 293.077,369.392 292.807 C 370.065 292.248,371.200 290.113,371.200 289.406 C 371.200 289.147,371.649 288.050,372.198 286.968 C 372.747 285.886,373.197 284.426,373.198 283.724 C 373.199 283.022,373.380 282.336,373.600 282.200 C 373.820 282.064,374.000 280.984,374.000 279.800 C 374.000 278.616,374.180 277.536,374.400 277.400 C 374.643 277.250,374.800 274.270,374.800 269.800 C 374.800 265.330,374.643 262.350,374.400 262.200 C 374.180 262.064,374.000 261.074,374.000 260.000 C 374.000 258.926,373.820 257.936,373.600 257.800 C 373.380 257.664,373.199 256.978,373.198 256.276 C 373.197 255.574,372.747 254.114,372.198 253.032 C 371.649 251.950,371.200 250.577,371.200 249.981 C 371.200 249.385,370.921 248.666,370.580 248.384 C 370.239 248.101,369.625 247.134,369.215 246.235 C 368.804 245.336,368.003 244.164,367.434 243.630 C 366.865 243.097,366.400 242.450,366.400 242.192 C 366.400 241.935,366.040 241.398,365.600 241.000 C 365.160 240.602,364.800 240.075,364.800 239.830 C 364.800 239.249,357.522 232.000,356.939 232.000 C 356.694 232.000,356.399 231.640,356.284 231.200 C 356.147 230.676,355.738 230.400,355.099 230.400 C 354.563 230.400,353.786 230.026,353.372 229.569 C 352.958 229.112,351.880 228.401,350.975 227.989 C 350.071 227.577,349.099 226.961,348.816 226.620 C 348.534 226.279,347.885 226.000,347.375 226.000 C 346.865 226.000,346.336 225.820,346.200 225.600 C 346.064 225.380,345.549 225.200,345.056 225.200 C 344.563 225.200,343.989 225.035,343.780 224.834 C 343.571 224.632,342.950 224.407,342.400 224.334 L 341.400 224.200 341.297 200.217 C 341.231 185.031,341.048 176.088,340.797 175.837 C 340.579 175.619,340.400 174.882,340.400 174.200 C 340.400 173.518,340.216 172.776,339.992 172.552 C 339.767 172.327,339.470 170.935,339.333 169.459 C 339.195 167.982,338.928 166.679,338.741 166.564 C 338.553 166.448,338.400 165.941,338.400 165.438 C 338.400 164.935,338.040 164.198,337.600 163.800 C 337.160 163.402,336.800 162.589,336.800 161.994 C 336.800 160.944,334.504 155.935,333.900 155.667 C 333.735 155.593,333.600 155.228,333.600 154.855 C 333.600 154.482,333.240 153.917,332.800 153.600 C 332.360 153.283,332.000 152.703,332.000 152.312 C 332.000 151.920,331.820 151.600,331.600 151.600 C 331.380 151.600,331.200 151.312,331.200 150.960 C 331.200 150.609,330.660 149.817,330.000 149.200 C 329.340 148.583,328.800 147.714,328.800 147.268 C 328.800 146.797,327.792 145.495,326.400 144.167 C 325.080 142.908,324.000 141.681,324.000 141.439 C 324.000 141.198,318.961 135.960,312.802 129.800 C 306.644 123.640,301.604 118.465,301.602 118.300 C 301.601 118.135,304.925 118.000,308.988 118.000 C 315.634 118.000,316.519 117.920,317.800 117.200 C 318.583 116.760,319.539 116.400,319.924 116.400 C 321.330 116.400,326.400 110.473,326.400 108.829 C 326.400 108.399,326.580 107.936,326.800 107.800 C 327.025 107.661,327.200 105.737,327.200 103.400 C 327.200 101.063,327.025 99.139,326.800 99.000 C 326.580 98.864,326.400 98.177,326.400 97.473 C 326.400 96.626,326.129 96.023,325.600 95.693 C 325.160 95.418,324.800 94.946,324.800 94.645 C 324.800 93.893,321.743 90.800,321.000 90.800 C 320.670 90.800,320.400 90.620,320.400 90.400 C 320.400 90.180,320.040 90.000,319.600 90.000 C 319.160 90.000,318.800 89.820,318.800 89.600 C 318.800 89.380,318.440 89.200,318.000 89.200 C 317.560 89.200,317.200 89.020,317.200 88.800 C 317.200 88.537,307.662 88.415,289.300 88.443 L 261.400 88.486 258.849 89.812 M159.394 195.800 C 159.394 226.380,159.442 238.831,159.500 223.469 C 159.558 208.107,159.558 183.087,159.500 167.869 C 159.442 152.651,159.394 165.220,159.394 195.800 M258.946 192.602 C 260.405 193.363,260.775 193.368,259.776 192.613 C 259.349 192.290,258.730 192.021,258.400 192.015 C 258.070 192.010,258.316 192.274,258.946 192.602 M208.800 225.433 C 208.242 225.743,208.065 225.985,208.400 225.981 C 208.730 225.978,209.349 225.710,209.776 225.387 C 210.739 224.659,210.145 224.687,208.800 225.433 M176.093 242.580 C 174.839 243.272,174.462 243.701,175.412 243.355 C 176.398 242.995,177.914 241.986,177.389 242.039 C 177.175 242.061,176.592 242.304,176.093 242.580 M331.400 252.000 C 331.536 252.220,331.966 252.400,332.356 252.400 C 333.338 252.400,336.672 254.136,337.945 255.310 C 338.525 255.845,339.319 256.395,339.709 256.532 C 340.099 256.670,340.530 257.101,340.668 257.491 C 340.805 257.881,341.355 258.675,341.890 259.255 C 343.064 260.528,344.800 263.862,344.800 264.844 C 344.800 265.234,344.980 265.664,345.200 265.800 C 345.423 265.938,345.600 267.796,345.600 270.000 C 345.600 272.204,345.423 274.062,345.200 274.200 C 344.980 274.336,344.800 274.859,344.800 275.362 C 344.800 275.865,344.440 276.602,344.000 277.000 C 343.560 277.398,343.200 278.074,343.200 278.502 C 343.200 278.929,342.660 279.783,342.000 280.400 C 341.340 281.017,340.800 281.809,340.800 282.160 C 340.800 282.512,340.512 282.800,340.160 282.800 C 339.809 282.800,339.017 283.340,338.400 284.000 C 337.783 284.660,336.991 285.200,336.640 285.200 C 336.288 285.200,336.000 285.380,336.000 285.600 C 336.000 285.820,335.680 286.000,335.288 286.000 C 334.897 286.000,334.317 286.360,334.000 286.800 C 333.530 287.452,332.965 287.600,330.935 287.600 C 329.567 287.600,328.336 287.780,328.200 288.000 C 328.064 288.220,327.524 288.400,327.000 288.400 C 326.476 288.400,325.936 288.220,325.800 288.000 C 325.664 287.780,324.481 287.600,323.171 287.600 C 320.806 287.600,319.772 287.243,318.245 285.900 C 317.807 285.515,317.290 285.200,317.096 285.200 C 316.407 285.200,310.800 279.208,310.800 278.472 C 310.800 278.060,310.440 277.398,310.000 277.000 C 309.560 276.602,309.200 275.865,309.200 275.362 C 309.200 274.859,309.020 274.336,308.800 274.200 C 308.577 274.062,308.400 272.204,308.400 270.000 C 308.400 267.796,308.577 265.938,308.800 265.800 C 309.020 265.664,309.200 265.231,309.200 264.838 C 309.200 263.926,310.239 261.832,311.008 261.193 C 311.334 260.923,311.600 260.257,311.600 259.714 C 311.600 259.077,311.872 258.654,312.363 258.526 C 312.783 258.416,313.216 257.984,313.325 257.565 C 313.434 257.146,313.856 256.687,314.262 256.543 C 314.668 256.400,315.475 255.845,316.055 255.310 C 317.328 254.136,320.662 252.400,321.644 252.400 C 322.034 252.400,322.464 252.220,322.600 252.000 C 322.739 251.775,324.663 251.600,327.000 251.600 C 329.337 251.600,331.261 251.775,331.400 252.000 "
       stroke="none"
       fill="#b42424"
       fill-rule="evenodd" />
    <path
       id="path3"
       d=""
       stroke="none"
       fill="#bcbc100"
       fill-rule="evenodd" />
    <path
       id="path4"
       d=""
       stroke="none"
       fill="#bcbc100"
       fill-rule="evenodd" />
  </g>
  <path
     style="fill:#000000;stroke-width:0.862069;opacity:1"
     d="m 159.91379,195.71344 v -54.70236 l 9.69828,5.02576 c 5.33405,2.76416 14.74138,7.6403 20.90517,10.83587 6.16379,3.19557 14.31035,7.47864 18.10345,9.51794 3.7931,2.0393 12.34104,6.55635 18.99541,10.0379 30.31591,15.86116 36.50854,19.26951 35.93201,19.77658 -0.63192,0.5558 -30.73402,16.37193 -52.34121,27.50092 -6.63793,3.41893 -14.39656,7.48454 -17.24138,9.03467 -2.84483,1.55012 -11.67026,6.16117 -19.61207,10.24675 l -14.43966,7.42834 z"
     id="path331" />
</svg>
