<?xml version="1.0" standalone="no"?>
<!DOCTYPE svg PUBLIC "-//W3C//DTD SVG 20010904//EN"
 "http://www.w3.org/TR/2001/REC-SVG-20010904/DTD/svg10.dtd">
<svg version="1.0" xmlns="http://www.w3.org/2000/svg"
 width="512.000000pt" height="512.000000pt" viewBox="0 0 512.000000 512.000000"
 preserveAspectRatio="xMidYMid meet">
<metadata>
Created by potrace 1.14, written by Peter Selinger 2001-2017
</metadata>
<g transform="translate(0.000000,512.000000) scale(0.100000,-0.100000)"
fill="#000000" stroke="none">
<path d="M2095 4374 c-750 -14 -1344 -41 -1483 -70 -101 -20 -242 -89 -314
-153 -145 -131 -231 -353 -263 -681 -30 -311 -35 -444 -35 -910 0 -740 32
-1079 125 -1327 72 -190 197 -314 382 -378 185 -65 483 -85 1552 -105 907 -17
2203 18 2440 66 101 21 167 47 242 95 300 195 379 536 379 1649 0 592 -23 952
-74 1158 -71 287 -173 431 -371 527 -118 57 -196 72 -477 90 -437 27 -1577 48
-2103 39z"/>
</g>
</svg>
